<svg width="16" height="19" viewBox="0 0 16 19" fill="none" xmlns="http://www.w3.org/2000/svg">
<path id="Vector" d="M7.99957 1C5.59125 1 3.62484 2.96641 3.62484 5.37473C3.62484 7.78306 5.59125 9.74947 7.99957 9.74947C10.4079 9.74947 12.3743 7.78306 12.3743 5.37473C12.3743 2.96641 10.4079 1 7.99957 1ZM7.99957 2.31242C9.69862 2.31242 11.0619 3.67569 11.0619 5.37473C11.0619 7.07378 9.69862 8.43705 7.99957 8.43705C6.30053 8.43705 4.93726 7.07378 4.93726 5.37473C4.93726 3.67569 6.30053 2.31242 7.99957 2.31242ZM2.74049 11.4994C1.78688 11.4994 1 12.2862 1 13.2399V13.9055C1 15.4822 1.99712 16.7019 3.32151 17.4326C4.64591 18.1633 6.32322 18.4989 7.99957 18.4989C9.67593 18.4989 11.3532 18.1633 12.6776 17.4326C13.8069 16.8096 14.6568 15.814 14.8949 14.5617L15 13.9055V13.2399C15 12.2862 14.2123 11.4994 13.2587 11.4994H2.74049ZM2.74049 12.8118H13.2587C13.5028 12.8118 13.6876 12.9957 13.6876 13.2399V13.2493L13.6867 13.9055C13.6867 14.9536 13.098 15.7025 12.0436 16.2842C10.9893 16.8659 9.4949 17.1865 7.99957 17.1865C6.50424 17.1865 5.00988 16.8659 3.95551 16.2842C2.90114 15.7025 2.31242 14.9536 2.31242 13.9055V13.2399C2.31242 12.9957 2.4963 12.8118 2.74049 12.8118Z" fill="#161A1D" stroke="#161A1D" stroke-width="0.2"/>
</svg>
